<svg class="pm-role-svg" width="128" height="128" viewBox="0 0 128 128" role="img" aria-label="Executor robot - terminal and wrench"><title>Executor robot - terminal and wrench</title><path d="M64 23v-9" stroke="#73DDF4" stroke-width="5" stroke-linecap="round"/><circle cx="64" cy="11" r="5" fill="#73DDF4"/>
<path d="M30 93Q32 79 46 79h36q14 0 16 14l7 19H23z" fill="#449AE2" stroke="#102641" stroke-width="3"/>
<rect x="39" y="83" width="50" height="31" rx="11" fill="#E9F5FF"/>
<rect x="14" y="38" width="16" height="25" rx="8" fill="#73DDF4" stroke="#102641" stroke-width="3"/><rect x="98" y="38" width="16" height="25" rx="8" fill="#73DDF4" stroke="#102641" stroke-width="3"/>
<rect x="24" y="24" width="80" height="53" rx="22" fill="#E9F5FF" stroke="#102641" stroke-width="3"/>
<rect x="31" y="35" width="66" height="32" rx="13" fill="#0A1730"/>
<path d="M42 53q6-9 12 0M74 53q6-9 12 0" fill="none" stroke="#73DDF4" stroke-width="4" stroke-linecap="round"/>
<path d="M46 92l8 6-8 6M61 104h12" fill="none" stroke="#102641" stroke-width="3" stroke-linecap="round" stroke-linejoin="round"/><path d="M96 78a10 10 0 0 0 12 13l-13 22a5 5 0 0 1-9-5l14-22a10 10 0 0 1-4-8z" fill="#73DDF4" stroke="#102641" stroke-width="3"/><path d="M96 78l7 8 7-3" fill="none" stroke="#102641" stroke-width="3" stroke-linejoin="round"/></svg>
